<?xml version="1.0" encoding="UTF-8"?>
<svg version="1.1" xmlns="http://www.w3.org/2000/svg" width="383" height="383">
<path d="M0 0 C126.39 0 252.78 0 383 0 C383 126.39 383 252.78 383 383 C256.61 383 130.22 383 0 383 C0 256.61 0 130.22 0 0 Z " fill="#000000" transform="translate(0,0)"/>
<path d="M0 0 C5.68047429 3.40828457 7.00760309 8.97905499 8.87890625 14.95703125 C9.77939333 17.82093328 10.76553889 20.62458039 11.8125 23.4375 C12.93805966 26.47086155 13.99133941 29.49711812 14.95703125 32.5859375 C17.80617808 41.67652639 21.50889186 49.95911727 25.96582031 58.37548828 C26.8477951 60.0726503 27.67110607 61.79989948 28.4921875 63.52734375 C29.61143646 66.23462806 29.61143646 66.23462806 31.875 67.125 C32.60825029 68.39125552 33.28685501 69.68938178 33.9375 71 C39.13502755 80.58722824 46.51641365 88.22867225 54.875 95.125 C54.441875 94.40763672 54.441875 94.40763672 54 93.67578125 C50.803237 87.31555487 50.46162315 81.3628739 50.4375 74.375 C50.42299805 73.00855347 50.42299805 73.00855347 50.40820312 71.61450195 C50.51370456 63.1580961 53.40549796 58.00368556 59.0625 51.828125 C63.36838474 47.78207813 68.5792329 47.67225519 74.2265625 47.81640625 C82.79492185 48.8147844 88.96532423 53.10451781 94.875 59.125 C95.49375 59.74503906 96.1125 60.36507812 96.75 61.00390625 C106.1870368 71.07143473 109.30382686 82.18494572 109.05859375 95.73046875 C108.42662065 107.41524794 103.82484507 116.39525936 96.1328125 125.1171875 C90.37610557 130.23647359 85.79159556 131.83043784 78.25 131.6875 C77.46963379 131.68234375 76.68926758 131.6771875 75.88525391 131.671875 C68.50354742 131.44218833 62.50662859 129.40566432 55.875 126.125 C55.875 125.465 55.875 124.805 55.875 124.125 C55.14539063 123.86847656 54.41578125 123.61195313 53.6640625 123.34765625 C50.75123379 122.07074395 48.69858229 120.57774213 46.25 118.5625 C43.67651356 116.45013314 42.05844921 115.18614974 38.875 114.125 C37.33203125 112.55859375 37.33203125 112.55859375 35.6875 110.5625 C31.13265757 105.18913409 26.15221288 100.30100342 21.0625 95.4375 C18.87711592 93.12723683 17.50416784 90.84027974 15.875 88.125 C14.22829129 86.43861156 12.56345034 84.76959448 10.875 83.125 C10.99005742 85.95904585 11.11677725 88.79179619 11.25 91.625 C11.29640625 92.81222656 11.29640625 92.81222656 11.34375 94.0234375 C11.60356223 99.30628612 12.43833706 104.03243869 13.875 109.125 C14.535 109.125 15.195 109.125 15.875 109.125 C16.89366229 110.78032623 17.89310813 112.44760138 18.875 114.125 C19.535 114.455 20.195 114.785 20.875 115.125 C21.47828125 116.20007813 21.47828125 116.20007813 22.09375 117.296875 C24.38296974 120.93151336 27.20661384 123.50656178 30.375 126.375 C31.31267212 127.23424072 31.31267212 127.23424072 32.26928711 128.11083984 C36.75768081 132.19223853 41.36638447 136.09432053 46.10546875 139.8828125 C48.09874391 141.49655008 50.05160818 143.1259595 51.98828125 144.8046875 C67.86076617 159.16101526 67.86076617 159.16101526 86.98046875 167.52734375 C89.50632453 168.32416011 90.19251856 169.49898669 91.625 171.6875 C92.05296875 172.32816406 92.4809375 172.96882812 92.921875 173.62890625 C93.23640625 174.12261719 93.5509375 174.61632812 93.875 175.125 C92.01933999 179.60951168 89.57040166 181.37586903 85.1875 183.3125 C75.74669753 185.62816853 65.87542143 184.15798566 57.5625 179.1875 C55.99495734 178.17442698 54.43236687 177.15364736 52.875 176.125 C51.52341797 175.34962891 51.52341797 175.34962891 50.14453125 174.55859375 C47.875 173.125 47.875 173.125 46.875 171.125 C45.885 170.795 44.895 170.465 43.875 170.125 C42.875 168.79166667 41.875 167.45833333 40.875 166.125 C39.885 165.795 38.895 165.465 37.875 165.125 C36.54166667 163.45833333 35.20833333 161.79166667 33.875 160.125 C32.885 159.795 31.895 159.465 30.875 159.125 C29.70223357 157.71768028 28.53333642 156.30683118 27.390625 154.875 C22.93103921 149.72578754 17.52478407 145.85814237 11.875 142.125 C11.84740852 143.33505203 11.84740852 143.33505203 11.81925964 144.56954956 C11.64078239 152.30247768 11.45052242 160.03499582 11.24813366 167.76733208 C11.14455607 171.73930152 11.04500017 175.71127311 10.95581055 179.68359375 C10.40027357 204.22145469 9.52465584 228.6781448 3.625 252.625 C3.32706543 253.8732959 3.02913086 255.1215918 2.72216797 256.40771484 C0.55187806 265.18086478 -2.17399995 273.5520995 -5.7421875 281.8515625 C-6.78470714 284.31944799 -7.60799687 286.51347139 -8.125 289.125 C-8.785 289.125 -9.445 289.125 -10.125 289.125 C-10.51171875 289.96224609 -10.51171875 289.96224609 -10.90625 290.81640625 C-13.42858794 295.59429638 -16.90352094 299.80271403 -20.125 304.125 C-20.90488281 305.18847656 -21.68476563 306.25195312 -22.48828125 307.34765625 C-29.6993982 317.06061888 -37.73279035 325.46293423 -47.125 333.125 C-47.455 333.785 -47.785 334.445 -48.125 335.125 C-50.1640625 336.0546875 -50.1640625 336.0546875 -52.75 337 C-55.88548525 338.14806998 -58.56474728 339.38461606 -61.453125 341.08984375 C-65.22520628 343.29784123 -69.07161619 344.58426052 -73.25 345.8125 C-73.93964844 346.02455078 -74.62929687 346.23660156 -75.33984375 346.45507812 C-91.09900946 351.23103943 -107.61446294 351.91931959 -122.7734375 345.06640625 C-130.00204887 340.87920363 -134.78050596 334.70190686 -138.125 327.125 C-140.32929788 318.60429301 -139.19050297 310.34705888 -137.375 301.875 C-137.13970581 300.74058472 -137.13970581 300.74058472 -136.8996582 299.58325195 C-134.60628219 289.56389364 -127.95435878 277.67488266 -119.125 272.125 C-118.465 272.125 -117.805 272.125 -117.125 272.125 C-117.125 271.465 -117.125 270.805 -117.125 270.125 C-116.135 269.795 -115.145 269.465 -114.125 269.125 C-113.795 268.465 -113.465 267.805 -113.125 267.125 C-111.46800094 266.14432709 -109.80558598 265.17166159 -108.1171875 264.24609375 C-106.24690553 263.19360174 -104.47792693 262.05668177 -102.6875 260.875 C-98.66067538 258.34744147 -94.48253064 256.15797364 -90.25 254 C-89.60232666 253.66323242 -88.95465332 253.32646484 -88.28735352 252.97949219 C-79.09725261 248.36676189 -70.76811169 246.64317098 -60.5 246.8125 C-59.51515625 246.80927734 -58.5303125 246.80605469 -57.515625 246.80273438 C-49.45182439 246.86186891 -42.20291339 247.2312658 -36.125 253.125 C-34.54601947 256.28296107 -34.30571829 259.73170636 -35.125 263.125 C-37.16307998 266.06186059 -38.75410289 267.84216196 -42.34375 268.58276367 C-45.00928412 268.7726778 -47.64029404 268.82191581 -50.3125 268.8125 C-61.54118411 268.91759208 -70.46470296 270.19542233 -80.375 275.6875 C-81.19129883 276.13077637 -82.00759766 276.57405273 -82.84863281 277.03076172 C-98.67198905 285.49496483 -98.67198905 285.49496483 -111.125 298.125 C-112.053125 299.3625 -112.053125 299.3625 -113 300.625 C-115.5520967 306.29632599 -115.84309962 313.95421177 -115.125 320.125 C-114.135 321.61 -114.135 321.61 -113.125 323.125 C-113.125 324.115 -113.125 325.105 -113.125 326.125 C-90.79360556 326.77990345 -90.79360556 326.77990345 -70.125 319.125 C-69.04347656 318.53460938 -67.96195312 317.94421875 -66.84765625 317.3359375 C-54.00281527 310.80251474 -54.00281527 310.80251474 -45.125 300.125 C-43.01893106 297.96042914 -40.88765165 295.83420436 -38.67578125 293.77734375 C-33.95157365 288.9291412 -31.83659538 283.07395183 -29.51953125 276.84375 C-28.125 273.125 -28.125 273.125 -26.6953125 270.03125 C-15.5689312 244.29138244 -13.13812569 214.04722885 -12.5246582 186.37158203 C-12.49496537 185.14839905 -12.49496537 185.14839905 -12.46467268 183.9005053 C-12.07028672 167.55850807 -12.04202131 151.22531036 -12.14153099 134.87984848 C-12.1703534 130.07642467 -12.18666244 125.27299906 -12.20100403 120.46951294 C-12.24292084 106.84710096 -12.29171033 93.22478581 -12.37182617 79.60253906 C-12.41643842 71.99987048 -12.44659894 64.39728763 -12.46068364 56.79449952 C-12.46868847 52.80500312 -12.4839122 48.81584411 -12.51735497 44.82647324 C-12.54860042 41.09787586 -12.56087118 37.36968214 -12.55913734 33.64095879 C-12.56307003 31.64445226 -12.58689327 29.64801497 -12.61157227 27.6516571 C-12.58368209 19.28983521 -11.97548402 10.1321379 -6.6774931 3.24267387 C-4.58805255 1.31785805 -2.87397373 0.16905728 0 0 Z " fill="#75F94D" transform="translate(204.125,15.875)"/>
<path d="M0 0 C5.68047429 3.40828457 7.00760309 8.97905499 8.87890625 14.95703125 C9.77939333 17.82093328 10.76553889 20.62458039 11.8125 23.4375 C13.20694682 27.21070903 14.49536948 31.00601508 15.73388672 34.83325195 C17.28521589 39.62252293 18.8032163 44.29315874 21.1875 48.75 C22.79378151 51.96256302 23.31390766 53.61373873 22.875 57.125 C21.885 56.795 20.895 56.465 19.875 56.125 C19.545 53.485 19.215 50.845 18.875 48.125 C18.215 48.125 17.555 48.125 16.875 48.125 C16.75125 46.206875 16.75125 46.206875 16.625 44.25 C16.41630069 42.07166582 16.41630069 42.07166582 15.875 40.125 C13.95435207 38.5350567 13.95435207 38.5350567 11.875 38.125 C12.205 36.145 12.535 34.165 12.875 32.125 C11.885 32.125 10.895 32.125 9.875 32.125 C9.68164062 31.11179687 9.48828125 30.09859375 9.2890625 29.0546875 C9.02625077 27.70308432 8.76321817 26.35152408 8.5 25 C8.37367188 24.33484375 8.24734375 23.6696875 8.1171875 22.984375 C7.31689926 18.90290498 6.27031963 15.04089702 4.875 11.125 C4.20833333 9.125 3.54166667 7.125 2.875 5.125 C-0.095 4.63 -0.095 4.63 -3.125 4.125 C-4.115 5.61 -4.115 5.61 -5.125 7.125 C-5.785 7.125 -6.445 7.125 -7.125 7.125 C-7.18558594 7.96804687 -7.24617187 8.81109375 -7.30859375 9.6796875 C-7.39238281 10.77539062 -7.47617188 11.87109375 -7.5625 13 C-7.64371094 14.09054688 -7.72492188 15.18109375 -7.80859375 16.3046875 C-8.125 19.125 -8.125 19.125 -9.125 21.125 C-8.795 21.785 -8.465 22.445 -8.125 23.125 C-8.10134911 25.40190173 -8.14889579 27.67961433 -8.22631836 29.95532227 C-8.27234909 31.44440956 -8.31828824 32.93349969 -8.364151 34.42259216 C-8.39077379 35.22506315 -8.41739658 36.02753414 -8.44482613 36.85432243 C-9.00705261 54.05534943 -9.27977227 71.25588859 -9.44140625 88.46484375 C-9.4574547 90.1510829 -9.4574547 90.1510829 -9.47382736 91.87138748 C-9.53861599 98.76416318 -9.59865275 105.65697374 -9.65722656 112.54980469 C-9.70855216 118.50523004 -9.7636427 124.46062064 -9.81835938 130.41601562 C-9.92413193 141.98564704 -10.02593424 153.55530934 -10.125 165.125 C-10.455 165.125 -10.785 165.125 -11.125 165.125 C-11.25796232 152.17736637 -11.38846728 139.22971024 -11.51615143 126.28202343 C-11.57556315 120.26458238 -11.63570473 114.24715081 -11.69775391 108.22973633 C-11.82839665 95.5129508 -11.9467627 82.79621427 -12.04066467 70.07909966 C-12.09053354 63.57658107 -12.16274148 57.07487043 -12.2556839 50.57282925 C-12.30877304 46.61556052 -12.34533087 42.65825478 -12.37791443 38.70076942 C-12.39647764 36.88281824 -12.42206519 35.06492208 -12.45545959 33.24718285 C-12.85254974 11.21441523 -12.85254974 11.21441523 -6.67687988 3.25971985 C-4.59379966 1.31712424 -2.88140886 0.16949464 0 0 Z " fill="#70CA56" transform="translate(204.125,15.875)"/>
<path d="M0 0 C0.33 0 0.66 0 1 0 C1.57973408 82.50953775 1.57973408 82.50953775 -5 104 C-5.99 104.495 -5.99 104.495 -7 105 C-7.16870524 98.1463496 -6.53282066 91.70666245 -5.5 84.9375 C-4.30767747 77.22462702 -4.30767747 77.22462702 -3.96875 69.44140625 C-4 66 -4 66 -3 64 C-2.85603322 62.00486112 -2.77323562 60.00519942 -2.71875 58.00561523 C-2.68201172 56.74768661 -2.64527344 55.489758 -2.60742188 54.19371033 C-2.58993896 53.51986738 -2.57245605 52.84602444 -2.55444336 52.15176201 C-2.49968983 50.04666884 -2.43910958 47.94181605 -2.37695312 45.83692932 C-2.22382038 40.61029938 -2.08071832 35.38340353 -1.9375 30.15649414 C-1.81610947 25.73901679 -1.69085784 21.32168293 -1.56030273 16.90446663 C-1.5004868 14.82551286 -1.44645099 12.7464582 -1.39257812 10.66734314 C-1.35583984 9.41256668 -1.31910156 8.15779022 -1.28125 6.86499023 C-1.25095703 5.75405502 -1.22066406 4.64311981 -1.18945312 3.4985199 C-1 1 -1 1 0 0 Z " fill="#78D45E" transform="translate(214,159)"/>
<path d="M0 0 C0.98484375 -0.00322266 1.9696875 -0.00644531 2.984375 -0.00976562 C11.04817561 0.04936891 18.29708661 0.4187658 24.375 6.3125 C25.96373246 9.48996491 25.78526221 12.85262202 25.375 16.3125 C23.875 18.8125 23.875 18.8125 22.375 20.3125 C21.715 19.9825 21.055 19.6525 20.375 19.3125 C21.365 17.8275 21.365 17.8275 22.375 16.3125 C22.82894552 14.03337062 22.82894552 14.03337062 23 11.625 C23.07476562 10.81675781 23.14953125 10.00851562 23.2265625 9.17578125 C23.30003906 8.25345703 23.30003906 8.25345703 23.375 7.3125 C22.776875 7.02375 22.17875 6.735 21.5625 6.4375 C19.375 5.3125 19.375 5.3125 16.375 3.3125 C11.9098804 2.86745175 7.42234192 2.98838726 2.9375 3 C1.69677734 2.98388672 0.45605469 2.96777344 -0.82226562 2.95117188 C-2.01400391 2.95052734 -3.20574219 2.94988281 -4.43359375 2.94921875 C-5.52470459 2.94623779 -6.61581543 2.94325684 -7.73999023 2.94018555 C-10.96319416 3.35614442 -12.21013847 4.21905906 -14.625 6.3125 C-16.84375 6.97265625 -16.84375 6.97265625 -19.125 7.375 C-21.56329379 7.81339186 -23.45204382 8.22236322 -25.65625 9.37109375 C-27.625 10.3125 -27.625 10.3125 -31.625 10.3125 C-31.625 11.3025 -31.625 12.2925 -31.625 13.3125 C-33.935 13.3125 -36.245 13.3125 -38.625 13.3125 C-38.955 14.3025 -39.285 15.2925 -39.625 16.3125 C-40.615 16.3125 -41.605 16.3125 -42.625 16.3125 C-42.955 17.6325 -43.285 18.9525 -43.625 20.3125 C-44.945 20.3125 -46.265 20.3125 -47.625 20.3125 C-48.285 21.3025 -48.945 22.2925 -49.625 23.3125 C-50.945 22.9825 -52.265 22.6525 -53.625 22.3125 C-52.26519991 19.59289982 -50.20916091 18.85449484 -47.6171875 17.43359375 C-45.74690553 16.38110174 -43.97792693 15.24418177 -42.1875 14.0625 C-38.16067538 11.53494147 -33.98253064 9.34547364 -29.75 7.1875 C-29.10232666 6.85073242 -28.45465332 6.51396484 -27.78735352 6.16699219 C-18.59725261 1.55426189 -10.26811169 -0.16932902 0 0 Z " fill="#7DE25F" transform="translate(143.625,262.6875)"/>
<path d="M0 0 C4.82989398 1.13644564 6.98064808 3.90003942 9.70703125 7.796875 C13.43250167 14.14480648 13.26491157 20.8179529 13 28 C10.6640625 27.8046875 10.6640625 27.8046875 8 27 C2.93502601 19.73752407 -0.30118149 8.84522484 0 0 Z " fill="#041203" transform="translate(277,88)"/>
<path d="M0 0 C1.09699219 0.55429688 2.19398438 1.10859375 3.32421875 1.6796875 C4.77859187 2.41156558 6.23302196 3.14333045 7.6875 3.875 C8.7693457 4.42220703 8.7693457 4.42220703 9.87304688 4.98046875 C12.84199165 6.47171955 15.71657042 7.89721784 18.84375 9.03125 C21.39050971 10.17544639 22.30735886 11.30278224 23.8125 13.625 C24.23144531 14.25664062 24.65039062 14.88828125 25.08203125 15.5390625 C25.38496094 16.02117187 25.68789063 16.50328125 26 17 C24.14433999 21.48451168 21.69540166 23.25086903 17.3125 25.1875 C7.87169753 27.50316853 -1.99957857 26.03298566 -10.3125 21.0625 C-11.88004266 20.04942698 -13.44263313 19.02864736 -15 18 C-15.90105469 17.48308594 -16.80210937 16.96617187 -17.73046875 16.43359375 C-20 15 -20 15 -21 13 C-21.99 12.67 -22.98 12.34 -24 12 C-25.6875 9.4375 -25.6875 9.4375 -27 7 C-22.33333333 9.33333333 -17.66666667 11.66666667 -13 14 C-13 14.99 -13 15.98 -13 17 C-12.401875 17.12375 -11.80375 17.2475 -11.1875 17.375 C-9 18 -9 18 -6 20 C-3.59902958 20.58897044 -1.17859796 21.10048585 1.25 21.5625 C2.53390625 21.81128906 3.8178125 22.06007812 5.140625 22.31640625 C8.75657675 22.95688353 12.36214178 23.50521358 16 24 C16 23.34 16 22.68 16 22 C17.32 22 18.64 22 20 22 C21.81301758 17.56906802 21.81301758 17.56906802 21 13 C18.525 12.505 18.525 12.505 16 12 C16 11.34 16 10.68 16 10 C14.02 9.67 12.04 9.34 10 9 C10 8.34 10 7.68 10 7 C9.46375 6.896875 8.9275 6.79375 8.375 6.6875 C5.37497956 5.81907303 2.7620465 4.44379704 0 3 C0 2.01 0 1.02 0 0 Z " fill="#7ED664" transform="translate(272,174)"/>
<path d="M0 0 C0.33 0.66 0.66 1.32 1 2 C2.33038449 2.3449145 3.66457061 2.67516582 5 3 C8.0625 4 8.0625 4 11 6 C12.39108251 8.91144778 13.25128372 11.86721346 14 15 C14.66 15 15.32 15 16 15 C17.25433458 18.76300374 17.10695422 22.27210909 17.0625 26.1875 C17.05798828 26.93708984 17.05347656 27.68667969 17.04882812 28.45898438 C17.03706354 30.30602383 17.01912865 32.15302213 17 34 C14.6875 34.625 14.6875 34.625 12 35 C8.13892543 32.42595029 8.05680308 30.38979741 7 26 C6.34 26 5.68 26 5 26 C5 25.34 5 24.68 5 24 C4.34 24 3.68 24 3 24 C2.855625 23.236875 2.71125 22.47375 2.5625 21.6875 C2.0367406 18.91827092 2.0367406 18.91827092 1 16 C0.835 14.96875 0.67 13.9375 0.5 12.875 C0.30352229 10.11169115 0.30352229 10.11169115 -1 9 C-1.1328125 7.1875 -1.1328125 7.1875 -1.125 5 C-1.12757813 4.278125 -1.13015625 3.55625 -1.1328125 2.8125 C-1 1 -1 1 0 0 Z M2 4 C2.67677711 14.15165663 5.52563079 23.39741981 11 32 C12.32 32 13.64 32 15 32 C15.56912462 22.09301595 14.30903908 13.88357762 7.59765625 6.27734375 C5.76082951 4.80878056 4.29666796 4.40179288 2 4 Z " fill="#7FE360" transform="translate(275,84)"/>
<path d="M0 0 C5.79713401 3.17907349 7.08994203 8.97993155 8.94140625 14.89453125 C9.84189333 17.75843328 10.82803889 20.56208039 11.875 23.375 C13.26944682 27.14820903 14.55786948 30.94351508 15.79638672 34.77075195 C17.34771589 39.56002293 18.8657163 44.23065874 21.25 48.6875 C22.85628151 51.90006302 23.37640766 53.55123873 22.9375 57.0625 C21.4525 56.5675 21.4525 56.5675 19.9375 56.0625 C19.6075 53.4225 19.2775 50.7825 18.9375 48.0625 C18.2775 48.0625 17.6175 48.0625 16.9375 48.0625 C16.81375 46.144375 16.81375 46.144375 16.6875 44.1875 C16.47880069 42.00916582 16.47880069 42.00916582 15.9375 40.0625 C14.01685207 38.4725567 14.01685207 38.4725567 11.9375 38.0625 C12.2675 36.0825 12.5975 34.1025 12.9375 32.0625 C11.9475 32.0625 10.9575 32.0625 9.9375 32.0625 C9.74414062 31.04929687 9.55078125 30.03609375 9.3515625 28.9921875 C9.08875077 27.64058432 8.82571817 26.28902408 8.5625 24.9375 C8.43617188 24.27234375 8.30984375 23.6071875 8.1796875 22.921875 C7.37939926 18.84040498 6.33281963 14.97839702 4.9375 11.0625 C3.9375 8.0625 3.9375 8.0625 2.9375 5.0625 C-0.0325 4.5675 -0.0325 4.5675 -3.0625 4.0625 C-4.0525 5.5475 -4.0525 5.5475 -5.0625 7.0625 C-5.7225 7.0625 -6.3825 7.0625 -7.0625 7.0625 C-7.0625 7.7225 -7.0625 8.3825 -7.0625 9.0625 C-7.7225 9.0625 -8.3825 9.0625 -9.0625 9.0625 C-7.68047014 4.53949319 -5.23266158 0.1585655 0 0 Z " fill="#81DF62" transform="translate(204.0625,15.9375)"/>
<path d="M0 0 C0.66 0.33 1.32 0.66 2 1 C1 3 1 3 -0.89453125 3.8828125 C-3.40527129 5.21504191 -4.23976339 6.45449399 -5.6875 8.875 C-6.10386719 9.55304688 -6.52023438 10.23109375 -6.94921875 10.9296875 C-7.98175737 12.96405727 -8.50393207 14.78392082 -9 17 C-9.33 17.66 -9.66 18.32 -10 19 C-10.66 19 -11.32 19 -12 19 C-12.99 22.3 -13.98 25.6 -15 29 C-15.99 29 -16.98 29 -18 29 C-17.79375 29.78375 -17.5875 30.5675 -17.375 31.375 C-17.25125 32.24125 -17.1275 33.1075 -17 34 C-17.66 34.66 -18.32 35.32 -19 36 C-19.45847689 38.36030696 -19.82143131 40.7398174 -20.125 43.125 C-20.29257813 44.40632813 -20.46015625 45.68765625 -20.6328125 47.0078125 C-20.75398438 47.99523437 -20.87515625 48.98265625 -21 50 C-21.33 50 -21.66 50 -22 50 C-22.43114059 43.31732084 -21.65241648 37.3202979 -20.25 30.8125 C-20.09305664 30.05275879 -19.93611328 29.29301758 -19.77441406 28.51025391 C-18.60296121 23.35113955 -16.82779145 19.47421822 -14 15 C-13.44699219 14.11054688 -12.89398438 13.22109375 -12.32421875 12.3046875 C-8.73230012 6.97253144 -5.49424588 3.36382401 0 0 Z " fill="#78F753" transform="translate(87,287)"/>
<path d="M0 0 C-5.89870381 4.71896305 -11.95023091 7.57847052 -19.125 9.6875 C-19.81464844 9.89955078 -20.50429687 10.11160156 -21.21484375 10.33007812 C-33.54029364 14.06542001 -50.61008123 16.84029981 -62.625 10.9375 C-63.73875 10.298125 -64.8525 9.65875 -66 9 C-63.33829677 7.66914839 -62.17680286 8.27606498 -59.29296875 8.9296875 C-52.28340414 10.29154577 -45.42976613 10.22092997 -38.3125 10.125 C-37.02666016 10.11597656 -35.74082031 10.10695313 -34.41601562 10.09765625 C-31.27714268 10.0743189 -28.13867524 10.04158033 -25 10 C-25 9.34 -25 8.68 -25 8 C-23.906875 7.690625 -22.81375 7.38125 -21.6875 7.0625 C-19.44592006 6.41662103 -17.2130649 5.7376883 -15 5 C-14.01 5 -13.02 5 -12 5 C-12 4.34 -12 3.68 -12 3 C-4.71428571 -0.42857143 -4.71428571 -0.42857143 0 0 Z " fill="#7AD55E" transform="translate(150,352)"/>
<path d="M0 0 C10.23 0 20.46 0 31 0 C31 0.33 31 0.66 31 1 C30.12432373 1.029729 30.12432373 1.029729 29.23095703 1.06005859 C26.52859732 1.15662861 23.82687606 1.26575973 21.125 1.375 C20.2071875 1.4059375 19.289375 1.436875 18.34375 1.46875 C8.0710711 1.90280685 -0.21935124 3.56054507 -9.25 8.5625 C-10.06339844 9.00215088 -10.87679687 9.44180176 -11.71484375 9.89477539 C-23.96844667 16.30980243 -23.96844667 16.30980243 -34.75 24.75390625 C-36 26 -36 26 -38 26 C-36.43903239 22.16853404 -34.08588695 19.71851946 -31 17 C-28.875 16.375 -28.875 16.375 -27 16 C-26.484375 15.484375 -25.96875 14.96875 -25.4375 14.4375 C-24.963125 13.963125 -24.48875 13.48875 -24 13 C-23.01 13 -22.02 13 -21 13 C-21 12.34 -21 11.68 -21 11 C-15.375 8 -15.375 8 -12 8 C-12 7.34 -12 6.68 -12 6 C-8 4.66666667 -4 3.33333333 0 2 C0 1.34 0 0.68 0 0 Z " fill="#7EE05E" transform="translate(133,283)"/>
<path d="M0 0 C2.43359375 0.34765625 2.43359375 0.34765625 5 1 C5.71727778 2.64551962 6.38325228 4.31422289 7 6 C8.9001177 7.24174796 8.9001177 7.24174796 11 8 C14 10 14 10 14.6875 13.125 C14.790625 14.07375 14.89375 15.0225 15 16 C16.32 16 17.64 16 19 16 C19.33 17.98 19.66 19.96 20 22 C14.42513065 17.46231564 9.72808722 13.21347871 6 7 C4.35329129 5.31361156 2.68845034 3.64459448 1 2 C1.11505742 4.83404585 1.24177725 7.66679619 1.375 10.5 C1.4059375 11.29148437 1.436875 12.08296875 1.46875 12.8984375 C1.72856223 18.18128612 2.56333706 22.90743869 4 28 C0.80541396 25.3788012 -0.81999177 23.64802962 -1.9375 19.625 C-2.4158024 13.1049831 -1.01310658 6.43029634 0 0 Z " fill="#82E864" transform="translate(214,97)"/>
<path d="M0 0 C0.33 0 0.66 0 1 0 C0.63547384 13.78571667 -5.29756799 27.19337665 -10 40 C-10.66 40 -11.32 40 -12 40 C-12.66 41.32 -13.32 42.64 -14 44 C-14.33 43.34 -14.66 42.68 -15 42 C-14.5875 41.195625 -14.175 40.39125 -13.75 39.5625 C-11.44716626 34.87458846 -10.26702893 30.05014367 -9 25 C-8.34 25 -7.68 25 -7 25 C-6.95101562 24.41992188 -6.90203125 23.83984375 -6.8515625 23.2421875 C-6.40205201 18.54557786 -5.63111529 14.45838178 -4 10 C-4 9.34 -4 8.68 -4 8 C-3.34 8 -2.68 8 -2 8 C-1.7834375 6.576875 -1.7834375 6.576875 -1.5625 5.125 C-1 2 -1 2 0 0 Z " fill="#7DDE5E" transform="translate(206,265)"/>
<path d="M0 0 C1.31571603 0.2547514 2.62760376 0.52934141 3.9375 0.8125 C4.66839844 0.96332031 5.39929688 1.11414063 6.15234375 1.26953125 C6.76207031 1.51058594 7.37179688 1.75164062 8 2 C8.33 2.99 8.66 3.98 9 5 C10.78949628 6.23531167 10.78949628 6.23531167 12.9375 7.1875 C13.64777344 7.53167969 14.35804688 7.87585938 15.08984375 8.23046875 C16.96596296 9.12455962 16.96596296 9.12455962 19 9 C19 9.66 19 10.32 19 11 C24.28680538 11.8741411 29.39503459 12.18282726 34.75 12.1875 C35.88115234 12.20586914 35.88115234 12.20586914 37.03515625 12.22460938 C40.89173682 12.23488446 42.71703384 12.18864411 46 10 C46.99 10 47.98 10 49 10 C49.2475 9.360625 49.495 8.72125 49.75 8.0625 C51 6 51 6 53.125 5.25 C53.74375 5.1675 54.3625 5.085 55 5 C51.26311663 9.98251115 47.33044471 14.1569778 40.95581055 15.39794922 C38.74639536 15.57352177 36.59087466 15.60449806 34.375 15.5625 C33.59463379 15.55734375 32.81426758 15.5521875 32.01025391 15.546875 C24.62854742 15.31718833 18.63162859 13.28066432 12 10 C12 9.34 12 8.68 12 8 C11.319375 7.773125 10.63875 7.54625 9.9375 7.3125 C6.27461218 5.67589055 3.0916961 3.55710888 0 1 C0 0.67 0 0.34 0 0 Z " fill="#7DD662" transform="translate(248,132)"/>
<path d="M0 0 C0.33 0 0.66 0 1 0 C1.29072943 28.78221401 1.29072943 28.78221401 -3.078125 39.609375 C-4.14426026 42.37409864 -4.68185553 45.05716367 -5 48 C-5.66 47.34 -6.32 46.68 -7 46 C-6.59088062 41.43887181 -5.60382529 37.03036381 -4.625 32.5625 C-2.42390018 21.80638661 -1.26334078 10.89885309 0 0 Z " fill="#78D05F" transform="translate(191,220)"/>
<path d="M0 0 C1.49273437 -0.00386719 1.49273437 -0.00386719 3.015625 -0.0078125 C4.05976563 -0.00007813 5.10390625 0.00765625 6.1796875 0.015625 C7.200625 0.00789063 8.2215625 0.00015625 9.2734375 -0.0078125 C17.49408285 0.01332026 24.84451487 0.24363942 31.0546875 6.265625 C32.64341996 9.44308991 32.46494971 12.80574702 32.0546875 16.265625 C30.5546875 18.765625 30.5546875 18.765625 29.0546875 20.265625 C28.3946875 19.935625 27.7346875 19.605625 27.0546875 19.265625 C27.7146875 18.275625 28.3746875 17.285625 29.0546875 16.265625 C29.50863302 13.98649562 29.50863302 13.98649562 29.6796875 11.578125 C29.75445312 10.76988281 29.82921875 9.96164062 29.90625 9.12890625 C29.95523438 8.51402344 30.00421875 7.89914062 30.0546875 7.265625 C29.4565625 6.976875 28.8584375 6.688125 28.2421875 6.390625 C26.0546875 5.265625 26.0546875 5.265625 23.0546875 3.265625 C19.85478696 2.89563163 19.85478696 2.89563163 16.19921875 2.8515625 C15.53758224 2.83219635 14.87594574 2.8128302 14.19425964 2.7928772 C12.08536586 2.73319813 9.97641713 2.68674413 7.8671875 2.640625 C6.43552335 2.60243434 5.00388191 2.56338197 3.57226562 2.5234375 C0.06661438 2.42750727 -3.43920695 2.34343303 -6.9453125 2.265625 C-4.41196941 -0.26771809 -3.50734326 0.00876992 0 0 Z " fill="#8DE672" transform="translate(136.9453125,262.734375)"/>
<path d="M0 0 C0.33 0 0.66 0 1 0 C1.33 5.61 1.66 11.22 2 17 C2.66 17 3.32 17 4 17 C4 17.66 4 18.32 4 19 C4.66 19.33 5.32 19.66 6 20 C6 23.3 6 26.6 6 30 C2 29 2 29 0.265625 26.1171875 C-1.58115075 21.21997863 -1.3635148 16.2899232 -1.25 11.125 C-1.24484375 10.16335937 -1.2396875 9.20171875 -1.234375 8.2109375 C-1.15464286 1.15464286 -1.15464286 1.15464286 0 0 Z " fill="#78DC5A" transform="translate(256,79)"/>
<path d="M0 0 C4.69623254 1.98285374 6.6096719 3.54529764 9 8 C9.721875 8.721875 10.44375 9.44375 11.1875 10.1875 C11.785625 10.785625 12.38375 11.38375 13 12 C13 12.66 13 13.32 13 14 C13.99 14 14.98 14 16 14 C16.99 15.485 16.99 15.485 18 17 C18.845625 17.28875 19.69125 17.5775 20.5625 17.875 C21.366875 18.24625 22.17125 18.6175 23 19 C23.8125 21.625 23.8125 21.625 24 24 C19.88287076 22.82367736 18.03873912 21.04377512 15.4375 17.7109375 C10.59984771 11.95307961 4.46466826 7.73093886 -2 4 C-1.34 2.68 -0.68 1.36 0 0 Z " fill="#87E968" transform="translate(216,153)"/>
<path d="M0 0 C0 0.66 0 1.32 0 2 C-1.65 2.33 -3.3 2.66 -5 3 C-5 3.66 -5 4.32 -5 5 C-7.64738916 6.4606285 -8.89448334 7 -12 7 C-12.309375 7.639375 -12.61875 8.27875 -12.9375 8.9375 C-14 11 -14 11 -15 12 C-16.37024654 12.18524792 -17.7470321 12.3230586 -19.125 12.4375 C-22.15731365 12.73450386 -24.61111561 13.18226255 -27.5625 14.0625 C-31.59509477 15.16229857 -34.83831808 15.14602393 -39 15 C-38.67 14.34 -38.34 13.68 -38 13 C-35.93148626 12.79314863 -33.86271407 12.5886727 -31.79296875 12.39453125 C-23.13338464 11.1712893 -15.41989595 8.11817848 -8.12109375 3.3671875 C-2.89714286 0 -2.89714286 0 0 0 Z " fill="#83E066" transform="translate(147,329)"/>
<path d="M0 0 C0 0.66 0 1.32 0 2 C0.66 2.33 1.32 2.66 2 3 C1.17387207 2.98428955 0.34774414 2.9685791 -0.50341797 2.95239258 C-3.61586112 2.90077263 -6.72808358 2.86341378 -9.84082031 2.83520508 C-11.83152905 2.81298521 -13.82203968 2.77483405 -15.8125 2.73632812 C-25.99381914 2.65919692 -34.04374194 4.05048897 -43 9 C-43 8.34 -43 7.68 -43 7 C-42.34 7 -41.68 7 -41 7 C-41 6.34 -41 5.68 -41 5 C-27.34923942 -0.57968351 -14.53036997 -0.13747803 0 0 Z " fill="#001500" transform="translate(159,261)"/>
<path d="M0 0 C5.63387307 4.42661455 7.98017859 12.10600728 9 19 C9.06701506 21.43666765 9.08528021 23.87501742 9.0625 26.3125 C9.05347656 27.56675781 9.04445313 28.82101563 9.03515625 30.11328125 C9.02355469 31.06589844 9.01195312 32.01851562 9 33 C8.01 33.495 8.01 33.495 7 34 C6.95101563 32.96359375 6.90203125 31.9271875 6.8515625 30.859375 C6.77650403 29.48955792 6.70095753 28.11976752 6.625 26.75 C6.5940625 26.06808594 6.563125 25.38617188 6.53125 24.68359375 C6.31274311 20.9325588 5.81615436 18.26491872 4 15 C3.42300861 12.39151808 2.99474369 9.78044587 2.5625 7.14453125 C2.376875 6.43683594 2.19125 5.72914062 2 5 C1.34 4.67 0.68 4.34 0 4 C0 2.68 0 1.36 0 0 Z " fill="#7ED763" transform="translate(304,82)"/>
<path d="M0 0 C5.84400014 4.12517657 11.05639437 8.7029318 16.25463867 13.59667969 C19.73592407 16.86880056 23.30207118 19.97391711 27 23 C25.3125 23.8125 25.3125 23.8125 23 24 C20.375 21.625 20.375 21.625 18 19 C17.34 18.67 16.68 18.34 16 18 C16 17.34 16 16.68 16 16 C15.01 16 14.02 16 13 16 C12.938125 15.38125 12.87625 14.7625 12.8125 14.125 C12.4103125 13.073125 12.4103125 13.073125 12 12 C10.34795544 11.29788106 8.68076231 10.63028587 7 10 C6.67 9.01 6.34 8.02 6 7 C4.00334402 5.32932867 2.00348966 3.66247014 0 2 C0 1.34 0 0.68 0 0 Z " fill="#86E769" transform="translate(228,137)"/>
<path d="M0 0 C0.33 0 0.66 0 1 0 C1.30292969 1.08796875 1.60585937 2.1759375 1.91796875 3.296875 C5.12143247 17.62423577 5.12143247 17.62423577 12 30 C12.04063832 31.66617115 12.042721 33.33388095 12 35 C11.01 34.67 10.02 34.34 9 34 C8.67 31.36 8.34 28.72 8 26 C7.34 26 6.68 26 6 26 C5.87625 24.081875 5.87625 24.081875 5.75 22.125 C5.54130069 19.94666582 5.54130069 19.94666582 5 18 C3.07935207 16.4100567 3.07935207 16.4100567 1 16 C1.020625 15.05125 1.04125 14.1025 1.0625 13.125 C1.22551826 10.09333717 1.22551826 10.09333717 0 8 C-0.13415472 5.3276379 -0.04318541 2.67749512 0 0 Z " fill="#7ADB5E" transform="translate(215,38)"/>
<path d="M0 0 C1.59523966 5.43831704 0.64547489 10.22494406 -1.25 15.4375 C-3 18 -3 18 -5.5625 18.5625 C-6.366875 18.706875 -7.17125 18.85125 -8 19 C-8.70211894 20.65204456 -9.36971413 22.31923769 -10 24 C-12.125 24.8125 -12.125 24.8125 -14 25 C-12.96116667 21.30637037 -11.28579668 19.14311763 -8.6875 16.4375 C-4.2674664 11.61984831 -2.19957759 6.08178135 0 0 Z " fill="#83EF62" transform="translate(175,292)"/>
<path d="M0 0 C0 0.99 0 1.98 0 3 C-0.78375 3.2475 -1.5675 3.495 -2.375 3.75 C-5.50604513 5.24097387 -5.51655559 6.0115338 -7 9 C-8.22467205 10.33551433 -9.50022752 11.62545565 -10.8125 12.875 C-14.12521355 16.09720225 -17.11464018 19.39330023 -20 23 C-20 17.42511736 -15.82261354 12.85516021 -12.03125 8.99609375 C-8.24582516 5.62560971 -4.29528651 2.68455407 0 0 Z " fill="#082504" transform="translate(110,298)"/>
<path d="M0 0 C0.66 0 1.32 0 2 0 C1.97679688 1.19238281 1.95359375 2.38476562 1.9296875 3.61328125 C1.91092822 5.17968124 1.89272819 6.746088 1.875 8.3125 C1.85824219 9.09818359 1.84148437 9.88386719 1.82421875 10.69335938 C1.81777344 11.45068359 1.81132813 12.20800781 1.8046875 12.98828125 C1.79421387 13.68477783 1.78374023 14.38127441 1.77294922 15.09887695 C1.89425405 17.331173 1.89425405 17.331173 4 20 C4 20.99 4 21.98 4 23 C5.794375 22.9690625 5.794375 22.9690625 7.625 22.9375 C11.18004869 22.93117429 14.50555624 23.30111125 18 24 C18 24.66 18 25.32 18 26 C15.72844502 25.91297874 13.45769257 25.80480478 11.1875 25.6875 C9.29064453 25.60048828 9.29064453 25.60048828 7.35546875 25.51171875 C4 25 4 25 2.11328125 23.70703125 C0.06064864 20.55966125 -0.12397979 17.35716991 -0.09765625 13.671875 C-0.09282227 12.47304688 -0.09282227 12.47304688 -0.08789062 11.25 C-0.07951172 10.425 -0.07113281 9.6 -0.0625 8.75 C-0.05798828 7.90953125 -0.05347656 7.0690625 -0.04882812 6.203125 C-0.03707961 4.13538599 -0.01914522 2.06768376 0 0 Z " fill="#77CE5C" transform="translate(87,319)"/>
<path d="M0 0 C0.71800781 0.13277344 1.43601562 0.26554687 2.17578125 0.40234375 C12.09443948 2.09456813 21.95852557 2.59706861 32 3 C32 3.33 32 3.66 32 4 C19.93894269 6.10286446 10.82536696 7.21456252 0 1 C0 0.67 0 0.34 0 0 Z " fill="#81E263" transform="translate(84,360)"/>
<path d="M0 0 C2.60658864 3.90988296 1.76840543 5.46640795 1 10 C1.04125 11.0725 1.0825 12.145 1.125 13.25 C1 16 1 16 -0.375 17.875 C-2 19 -2 19 -4 19 C-4.33 19.99 -4.66 20.98 -5 22 C-5.625 20.1875 -5.625 20.1875 -6 18 C-5.01 16.515 -5.01 16.515 -4 15 C-3.23320525 12.4393533 -2.52765553 9.90136692 -1.875 7.3125 C-1.69324219 6.61060547 -1.51148438 5.90871094 -1.32421875 5.18554688 C-0.87772921 3.45833732 -0.4381834 1.72933544 0 0 Z " fill="#7FF25C" transform="translate(183,267)"/>
<path d="M0 0 C1.65 0.66 3.3 1.32 5 2 C4.91714489 4.81707371 4.42324261 6.53443313 2.515625 8.6328125 C-3.14485855 13.64016334 -6.84372936 14.14986982 -14.4375 14.1875 C-15.73558594 14.20167969 -17.03367187 14.21585938 -18.37109375 14.23046875 C-21.75472799 14.01557702 -23.98105663 13.47166218 -27 12 C-24.68813283 11.22937761 -23.2251739 10.95496522 -20.8125 11.4375 C-13.79445066 12.84110987 -8.38068001 12.16919112 -1.84765625 9.265625 C0.37359535 7.74409113 1.12537753 6.52998138 2 4 C1.21690533 1.76529595 1.21690533 1.76529595 0 0 Z " fill="#041703" transform="translate(295,187)"/>
<path d="M0 0 C0.33 0.66 0.66 1.32 1 2 C2.33038449 2.3449145 3.66457061 2.67516582 5 3 C8.125 4.125 8.125 4.125 11 6 C12.375 9.6875 12.375 9.6875 13 13 C12.29875 12.2575 11.5975 11.515 10.875 10.75 C8.02281994 8.02182777 5.3236937 6.08697046 2 4 C2 6.31 2 8.62 2 11 C1.01 10.34 0.02 9.68 -1 9 C-1.47114738 6.2572492 -1.17805784 3.80441103 -1 1 C-0.67 0.67 -0.34 0.34 0 0 Z " fill="#7CE65B" transform="translate(275,84)"/>
<path d="M0 0 C0.66 0.33 1.32 0.66 2 1 C-3.5733897 8.49209763 -9.11686256 15.63598186 -16 22 C-16.33 20.68 -16.66 19.36 -17 18 C-16.195625 17.7525 -15.39125 17.505 -14.5625 17.25 C-11.828919 16.27761141 -11.828919 16.27761141 -11.1875 13.875 C-11.125625 13.25625 -11.06375 12.6375 -11 12 C-9.68 11.67 -8.36 11.34 -7 11 C-6.9175 10.46375 -6.835 9.9275 -6.75 9.375 C-5.72706194 6.13569613 -3.99966302 3.72681321 -2 1 C-1.34 0.67 -0.68 0.34 0 0 Z " fill="#85E867" transform="translate(182,319)"/>
<path d="M0 0 C0.33 0 0.66 0 1 0 C1.07347656 1.80984375 1.07347656 1.80984375 1.1484375 3.65625 C1.22353532 5.27085306 1.29908003 6.88543539 1.375 8.5 C1.4059375 9.29148437 1.436875 10.08296875 1.46875 10.8984375 C1.72856223 16.18128612 2.56333706 20.90743869 4 26 C0.73940372 23.32463895 -0.83425181 21.61879323 -1.9375 17.5 C-2.36706254 11.6217758 -1.06200711 5.75765838 0 0 Z " fill="#79D35E" transform="translate(214,99)"/>
<path d="M0 0 C0.66 0.33 1.32 0.66 2 1 C0.73134318 3.53731364 -0.49709121 3.78646846 -3 5 C-3.66 5.66 -4.32 6.32 -5 7 C-5.45375 7.4125 -5.9075 7.825 -6.375 8.25 C-9.57180164 11.69270946 -11.86337046 15.4796031 -13.625 19.8125 C-15 23 -15 23 -17 24 C-15.87848061 16.16374269 -11.14716663 8.46005273 -5.1875 3.3125 C-2 1 -2 1 0 0 Z " fill="#85E268" transform="translate(87,287)"/>
<path d="M0 0 C4.66666667 2.33333333 9.33333333 4.66666667 14 7 C14 7.99 14 8.98 14 10 C14.8971875 10.1546875 14.8971875 10.1546875 15.8125 10.3125 C18.28243264 11.08876455 19.32251235 12.07088921 21 14 C18.875 14.3125 18.875 14.3125 16 14 C13.94720004 12.39881603 11.94348501 10.73223664 10 9 C9.01 8.67 8.02 8.34 7 8 C6.67 7.34 6.34 6.68 6 6 C5.01 5.67 4.02 5.34 3 5 C1.3125 2.4375 1.3125 2.4375 0 0 Z " fill="#83EA63" transform="translate(245,181)"/>
<path d="M0 0 C1.5 1.25 1.5 1.25 3 3 C3 4.32 3 5.64 3 7 C3.99 7 4.98 7 6 7 C6 7.99 6 8.98 6 10 C6.66 10 7.32 10 8 10 C8.598125 10.78375 9.19625 11.5675 9.8125 12.375 C12.12440644 15.14928773 13.60508111 15.96266367 17 17 C17 17.33 17 17.66 17 18 C14.296875 18.29296875 14.296875 18.29296875 11 18 C8.515625 15.98828125 8.515625 15.98828125 6.25 13.3125 C5.49203125 12.44238281 4.7340625 11.57226562 3.953125 10.67578125 C1.35360127 7.11443374 0 4.42826386 0 0 Z " fill="#83E464" transform="translate(67,341)"/>
<path d="M0 0 C0.66 0 1.32 0 2 0 C0.33671179 9.87467946 -5.15475587 16.96791298 -12 24 C-12.33 23.01 -12.66 22.02 -13 21 C-11.1875 18.3125 -11.1875 18.3125 -9 16 C-8.34 16 -7.68 16 -7 16 C-6.7525 15.319375 -6.505 14.63875 -6.25 13.9375 C-5.25913014 11.60895583 -4.21945876 9.60051406 -2.9375 7.4375 C-1.4391943 4.77921569 -0.47198038 2.9498774 0 0 Z " fill="#001600" transform="translate(173,292)"/>
<path d="M0 0 C0 0.99 0 1.98 0 3 C-2.3614625 4.18073125 -3.697793 4.08761883 -6.32421875 4.02734375 C-7.18853516 4.01509766 -8.05285156 4.00285156 -8.94335938 3.99023438 C-10.75334252 3.95545178 -12.5632507 3.91648198 -14.37304688 3.87304688 C-19.70981918 3.80589282 -23.93712685 4.3275599 -29 6 C-31.9375 6.125 -31.9375 6.125 -34 6 C-33 4.5625 -33 4.5625 -31 3 C-23.79436524 1.81540018 -16.53634362 1.66182918 -9.25 1.39453125 C-8.34507812 1.35714844 -7.44015625 1.31976563 -6.5078125 1.28125 C-5.68941895 1.25095703 -4.87102539 1.22066406 -4.02783203 1.18945312 C-1.93254565 1.11713687 -1.93254565 1.11713687 0 0 Z " fill="#011700" transform="translate(166,282)"/>
<path d="M0 0 C3 1 3 1 4.2109375 2.85546875 C4.78714844 4.00982422 4.78714844 4.00982422 5.375 5.1875 C6.96597755 8.22438115 8.55566745 10.85460949 10.8125 13.4375 C13 16 13 16 13 18 C11.35 18 9.7 18 8 18 C8.33 16.68 8.66 15.36 9 14 C8.34 14 7.68 14 7 14 C6.67 12.35 6.34 10.7 6 9 C5.01 9 4.02 9 3 9 C2.01 6.03 1.02 3.06 0 0 Z " fill="#7EE35F" transform="translate(233,82)"/>
<path d="M0 0 C10.23 0 20.46 0 31 0 C31 0.33 31 0.66 31 1 C30.43192627 1.01981934 29.86385254 1.03963867 29.27856445 1.06005859 C18.39144081 1.4584351 7.72253841 1.9509806 -3 4 C-2.67 3.34 -2.34 2.68 -2 2 C-1.34 2 -0.68 2 0 2 C0 1.34 0 0.68 0 0 Z " fill="#8AE86E" transform="translate(133,283)"/>
<path d="M0 0 C0.33 0 0.66 0 1 0 C1.05389087 1.95803507 1.09274217 3.91648909 1.125 5.875 C1.14820312 6.96554687 1.17140625 8.05609375 1.1953125 9.1796875 C1 12 1 12 -1 14 C-1.45847689 16.36030696 -1.82143131 18.7398174 -2.125 21.125 C-2.29257813 22.40632813 -2.46015625 23.68765625 -2.6328125 25.0078125 C-2.75398438 25.99523437 -2.87515625 26.98265625 -3 28 C-3.33 28 -3.66 28 -4 28 C-4.6283815 18.26008676 -2.29192372 9.39279453 0 0 Z " fill="#72CA56" transform="translate(69,309)"/>
<path d="M0 0 C0.66 0.33 1.32 0.66 2 1 C-3.0334789 5.08010729 -6.67811575 5.59985924 -13.0625 5.4375 C-13.85205078 5.44458984 -14.64160156 5.45167969 -15.45507812 5.45898438 C-20.13454437 5.40799271 -23.14564324 4.92372736 -27 2 C-24 1 -24 1 -21 2 C-18.00378134 2.22373872 -15.00374332 2.18513857 -12 2.1875 C-10.77023437 2.20586914 -10.77023437 2.20586914 -9.515625 2.22460938 C-8.72671875 2.22654297 -7.9378125 2.22847656 -7.125 2.23046875 C-6.04605469 2.23663208 -6.04605469 2.23663208 -4.9453125 2.24291992 C-2.67556749 2.10677908 -2.67556749 2.10677908 0 0 Z " fill="#031602" transform="translate(294,144)"/>
<path d="M0 0 C1.32 0 2.64 0 4 0 C4.33 1.32 4.66 2.64 5 4 C6.32 3.67 7.64 3.34 9 3 C9.268125 4.134375 9.53625 5.26875 9.8125 6.4375 C10.204375 7.613125 10.59625 8.78875 11 10 C11.99 10.33 12.98 10.66 14 11 C13.67 11.66 13.34 12.32 13 13 C9.63951428 11.57142347 7.72274139 9.83945402 5.375 7.0625 C4.78460938 6.37285156 4.19421875 5.68320313 3.5859375 4.97265625 C2 3 2 3 0 0 Z " fill="#83E963" transform="translate(234,119)"/>
<path d="M0 0 C-1.56020867 0.65134925 -3.12328579 1.29582964 -4.6875 1.9375 C-5.55761719 2.29714844 -6.42773438 2.65679687 -7.32421875 3.02734375 C-11.34933194 4.49048709 -15.03799401 5.13494925 -19.3125 5.0625 C-21.1378125 5.0315625 -21.1378125 5.0315625 -23 5 C-22.67 4.34 -22.34 3.68 -22 3 C-20.25 2.69140625 -20.25 2.69140625 -18 2.5625 C-13.67744014 2.19711615 -10.06247988 1.11952753 -6.04296875 -0.4765625 C-3.66538444 -1.08573324 -2.29921174 -0.77501519 0 0 Z " fill="#7ED560" transform="translate(131,339)"/>
<path d="M0 0 C0.33 0 0.66 0 1 0 C1.1546875 1.8871875 1.1546875 1.8871875 1.3125 3.8125 C1.70317376 7.11865205 1.70317376 7.11865205 3.5 9.875 C3.995 10.24625 4.49 10.6175 5 11 C5.33 11.66 5.66 12.32 6 13 C8.32156597 13.40729228 10.6568787 13.74438677 13 14 C13 14.66 13 15.32 13 16 C9.57561517 15.98715053 6.33621828 15.80584983 3 15 C-0.76441397 10.57127769 -0.33190882 5.53181359 0 0 Z " fill="#051E03" transform="translate(88,327)"/>
<path d="M0 0 C0.33 0 0.66 0 1 0 C0.61387352 8.37495014 -0.45175967 16.00269231 -3 24 C-3.33 24 -3.66 24 -4 24 C-3.58779935 17.39394228 -3.0570745 11.29979065 -1 5 C-0.64628502 3.33753959 -0.30404678 1.67225729 0 0 Z " fill="#041803" transform="translate(188,238)"/>
<path d="M0 0 C-0.33 0.66 -0.66 1.32 -1 2 C-2.3921875 2.433125 -2.3921875 2.433125 -3.8125 2.875 C-7.23626536 4.08338777 -8.72455223 5.21889717 -11 8 C-11.33 8.99 -11.66 9.98 -12 11 C-12.99 11 -13.98 11 -15 11 C-13.65843569 8.09220751 -12.13892965 5.7482101 -10.0625 3.3125 C-9.55847656 2.71050781 -9.05445313 2.10851562 -8.53515625 1.48828125 C-5.7005063 -1.2598145 -3.53203542 -1.09614892 0 0 Z " fill="#83E066" transform="translate(272,66)"/>
<path d="M0 0 C6.35987804 -0.20190089 11.85221129 0.3722167 18 2 C18 2.33 18 2.66 18 3 C11.04952816 4.21357445 6.49976102 3.71975816 0 1 C0 0.67 0 0.34 0 0 Z " fill="#7AD95D" transform="translate(263,195)"/>
<path d="M0 0 C6.04433574 1.35997554 9.63494136 4.85651794 14 9 C12.1640625 9.6484375 12.1640625 9.6484375 10 10 C7.375 7.625 7.375 7.625 5 5 C4.34 4.67 3.68 4.34 3 4 C3 3.34 3 2.68 3 2 C2.01 2 1.02 2 0 2 C0 1.34 0 0.68 0 0 Z " fill="#83ED61" transform="translate(241,151)"/>
<path d="M0 0 C0.33 0 0.66 0 1 0 C1.71969331 6.62117849 -0.47155738 11.41864532 -4 17 C-4.66 17.33 -5.32 17.66 -6 18 C-5.71125 17.154375 -5.4225 16.30875 -5.125 15.4375 C-4.36653774 13.11997642 -3.65901457 10.78523941 -3 8.4375 C-2.15291726 5.52565307 -1.18281837 2.78807188 0 0 Z " fill="#83DF66" transform="translate(310,117)"/>
<path d="M0 0 C0.66 0.33 1.32 0.66 2 1 C1.67 1.99 1.34 2.98 1 4 C1.20625 4.721875 1.4125 5.44375 1.625 6.1875 C2.16931438 10.26985784 0.62596476 13.29794464 -1 17 C-1.66 16.34 -2.32 15.68 -3 15 C-2.79296875 11.77734375 -2.79296875 11.77734375 -2.1875 7.9375 C-1.89939453 6.03291016 -1.89939453 6.03291016 -1.60546875 4.08984375 C-1 1 -1 1 0 0 Z " fill="#7DF25C" transform="translate(68,322)"/>
<path d="M0 0 C1 3 1 3 0.0625 5.1875 C-0.288125 5.785625 -0.63875 6.38375 -1 7 C-2.32 7 -3.64 7 -5 7 C-5 7.99 -5 8.98 -5 10 C-7.31 10.66 -9.62 11.32 -12 12 C-9.53067374 9.46012156 -7.09363826 7.07403955 -4.3125 4.875 C-1.80846331 3.03438927 -1.80846331 3.03438927 0 0 Z " fill="#82E264" transform="translate(159,317)"/>
<path d="M0 0 C0.33 0 0.66 0 1 0 C1.3690205 10.55808656 1.3690205 10.55808656 -1 15 C-1.33 15 -1.66 15 -2 15 C-2.05429959 13.25034642 -2.09292823 11.50020213 -2.125 9.75 C-2.15980469 8.28820312 -2.15980469 8.28820312 -2.1953125 6.796875 C-1.99862781 3.9803502 -1.44568916 2.39050964 0 0 Z " fill="#7CE85D" transform="translate(195,25)"/>
<path d="M0 0 C3.25543229 0.34879632 4.01873107 1.02133261 6.25 3.5625 C6.8275 4.366875 7.405 5.17125 8 6 C7.34 7.32 6.68 8.64 6 10 C4.68 9.67 3.36 9.34 2 9 C2.350625 8.401875 2.70125 7.80375 3.0625 7.1875 C4.33304698 4.89186786 4.33304698 4.89186786 3 2 C2.01 1.67 1.02 1.34 0 1 C0 0.67 0 0.34 0 0 Z " fill="#85E66A" transform="translate(290,185)"/>
<path d="M0 0 C0.99 0.33 1.98 0.66 3 1 C2.52433594 2.19496094 2.52433594 2.19496094 2.0390625 3.4140625 C0.7735881 7.78137639 0.5480985 11.85280178 0.375 16.375 C0.33632812 17.20644531 0.29765625 18.03789062 0.2578125 18.89453125 C0.16425754 20.92935156 0.08107287 22.96464416 0 25 C-0.33 25 -0.66 25 -1 25 C-1.02900455 21.3958502 -1.04680018 17.79173038 -1.0625 14.1875 C-1.07087891 13.16333984 -1.07925781 12.13917969 -1.08789062 11.08398438 C-1.09111328 10.10107422 -1.09433594 9.11816406 -1.09765625 8.10546875 C-1.10289307 7.19949951 -1.10812988 6.29353027 -1.11352539 5.36010742 C-1 3 -1 3 0 0 Z " fill="#021800" transform="translate(216,158)"/>
<path d="M0 0 C4.99167126 0.22689415 8.08972542 1.97842419 12 5 C12.99 6.485 12.99 6.485 14 8 C11.07163663 7.54948256 9.61462149 6.7319106 7.125 5 C3.91636142 2.94647131 1.74827803 2.35697886 -2 2 C-1.34 1.34 -0.68 0.68 0 0 Z " fill="#84E564" transform="translate(283,66)"/>
<path d="M0 0 C1.65 0 3.3 0 5 0 C3.33333333 1.66666667 1.66666667 3.33333333 0 5 C-0.70125 5.763125 -1.4025 6.52625 -2.125 7.3125 C-4 9 -4 9 -7 9 C-5.73958325 5.21874975 -4.31129455 4.98677673 -1 3 C-0.67 2.01 -0.34 1.02 0 0 Z " fill="#86EA67" transform="translate(160,341)"/>
<path d="M0 0 C2.9375 1.25 2.9375 1.25 6 3 C6.875 5.1875 6.875 5.1875 7 7 C3.17902761 6.46930939 0.93828597 5.50298434 -2 3 C-1.34 2.01 -0.68 1.02 0 0 Z " fill="#7DF058" transform="translate(216,153)"/>
<path d="M0 0 C0.66 0 1.32 0 2 0 C3.01866229 1.65532623 4.01810813 3.32260138 5 5 C5.66 5.33 6.32 5.66 7 6 C8.04808041 7.97522846 9.0520411 9.97481509 10 12 C8.0625 11.6875 8.0625 11.6875 6 11 C5.67 10.01 5.34 9.02 5 8 C4.01 7.67 3.02 7.34 2 7 C0 4 0 4 0 0 Z " fill="#82DD64" transform="translate(218,125)"/>
<path d="M0 0 C1.21236328 0.04060547 1.21236328 0.04060547 2.44921875 0.08203125 C3.06410156 0.11683594 3.67898437 0.15164063 4.3125 0.1875 C2.8125 2.25 2.8125 2.25 0.3125 4.1875 C-2.51156647 4.24678384 -4.88975927 3.74704815 -7.6875 3.1875 C-5.26849268 0.20484049 -3.789448 -0.16475861 0 0 Z " fill="#86EE62" transform="translate(128.6875,264.8125)"/>
<path d="M0 0 C2.475 0.99 2.475 0.99 5 2 C4.6984013 5.51865145 3.99394038 7.00757452 1.75 9.8125 C-1 12 -1 12 -3.8125 12.3125 C-4.534375 12.209375 -5.25625 12.10625 -6 12 C-5.01 11.34 -4.02 10.68 -3 10 C-1.32576317 8.67618483 0.34211215 7.34423339 2 6 C1.34 4.02 0.68 2.04 0 0 Z " fill="#0E2B0A" transform="translate(295,187)"/>
<path d="M0 0 C2 3 2 3 1.72265625 4.921875 C0.98523059 7.04247204 0.24116652 9.15347864 -0.5625 11.25 C-0.83191406 11.95640625 -1.10132813 12.6628125 -1.37890625 13.390625 C-1.68634766 14.18726563 -1.68634766 14.18726563 -2 15 C-2.33 15 -2.66 15 -3 15 C-2.44854729 9.76119922 -1.57077907 5.02649303 0 0 Z " fill="#7BDA5F" transform="translate(183,267)"/>
<path d="M0 0 C1.52299523 2.93720508 2.80100302 5.9168649 4 9 C0.27885429 6.68462045 -2.61229661 4.71420527 -5 1 C-3.35 0.67 -1.7 0.34 0 0 Z " fill="#0F3808" transform="translate(256,103)"/>
<path d="M0 0 C0.33 0.66 0.66 1.32 1 2 C-0.21258505 5.23356015 -1.01284458 6.00856305 -4 8 C-4.72382467 10.05925139 -4.72382467 10.05925139 -5 12 C-6.32 12.33 -7.64 12.66 -9 13 C-7.47987323 7.59510481 -3.72614782 4.01507372 0 0 Z " fill="#89E76D" transform="translate(170,304)"/>
<path d="M0 0 C-5.04140164 2.81532819 -9.22621075 4.5188509 -15 5 C-15 4.34 -15 3.68 -15 3 C-14.113125 2.71125 -13.22625 2.4225 -12.3125 2.125 C-9.07654738 1.0858973 -9.07654738 1.0858973 -6.375 -0.1875 C-3.68414048 -1.1080572 -2.65337193 -0.78929418 0 0 Z " fill="#0B2E06" transform="translate(134,336)"/>
<path d="M0 0 C0.99 0.33 1.98 0.66 3 1 C1.33333333 2.66666667 -0.33333333 4.33333333 -2 6 C-2.556875 6.598125 -3.11375 7.19625 -3.6875 7.8125 C-5 9 -5 9 -7 9 C-7 8.34 -7 7.68 -7 7 C-6.34 7 -5.68 7 -5 7 C-4.731875 6.401875 -4.46375 5.80375 -4.1875 5.1875 C-3.01506533 3.02775192 -1.80630718 1.64209744 0 0 Z " fill="#092605" transform="translate(156,317)"/>
<path d="M0 0 C1.88391785 3.26545761 2.49287967 6.28111761 3 10 C1.68 10 0.36 10 -1 10 C-1.125 2.25 -1.125 2.25 0 0 Z " fill="#78D45C" transform="translate(277,93)"/>
<path d="M0 0 C2 1 2 1 3.3125 3.6875 C4.17503205 7.84333626 3.18809905 9.46537846 1 13 C0.34 12.67 -0.32 12.34 -1 12 C-0.67 11.34 -0.34 10.68 0 10 C0.06996014 8.29297265 0.08440154 6.58331997 0.0625 4.875 C0.05347656 3.96492188 0.04445312 3.05484375 0.03515625 2.1171875 C0.02355469 1.41851562 0.01195312 0.71984375 0 0 Z " fill="#001500" transform="translate(168,269)"/>
<path d="M0 0 C4.875 4.625 4.875 4.625 6 8 C4.35 8 2.7 8 1 8 C1.33 6.68 1.66 5.36 2 4 C1.34 4 0.68 4 0 4 C0 2.68 0 1.36 0 0 Z " fill="#84EA64" transform="translate(240,92)"/>
<path d="M0 0 C2.375 0.5625 2.375 0.5625 5 2 C6.3125 5.625 6.3125 5.625 7 9 C4.03595495 6.19195732 1.55500981 3.81684226 0 0 Z " fill="#86E966" transform="translate(281,88)"/>
<path d="M0 0 C4.875 1.75 4.875 1.75 6 4 C4.68 4 3.36 4 2 4 C2 5.65 2 7.3 2 9 C0.14223235 5.86501708 -0.20140476 3.62528568 0 0 Z " fill="#0B2C06" transform="translate(277,88)"/>
<path d="M0 0 C1.9375 0.6875 1.9375 0.6875 4 2 C4.75 4.625 4.75 4.625 5 7 C1.125 6.125 1.125 6.125 0 5 C-0.04063832 3.33382885 -0.042721 1.66611905 0 0 Z " fill="#7CE15C" transform="translate(257,102)"/>
<path d="M0 0 C0.33 0 0.66 0 1 0 C1.99 4.29 2.98 8.58 4 13 C3.01 13.495 3.01 13.495 2 14 C0.02905192 9.07262981 -0.1799928 5.21979128 0 0 Z " fill="#73CA57" transform="translate(215,38)"/>
<path d="M0 0 C0.99 0.33 1.98 0.66 3 1 C1.71283353 2.00578589 0.42011342 3.00446798 -0.875 4 C-1.95394531 4.8353125 -1.95394531 4.8353125 -3.0546875 5.6875 C-5 7 -5 7 -7 7 C-6.67 6.01 -6.34 5.02 -6 4 C-5.01 4 -4.02 4 -3 4 C-2.67 3.01 -2.34 2.02 -2 1 C-1.34 0.67 -0.68 0.34 0 0 Z " fill="#0D2E07" transform="translate(99,276)"/>
<path d="M0 0 C-2.58926331 2.58926331 -4.02705279 2.37398043 -7.625 2.625 C-8.62789063 2.69976562 -9.63078125 2.77453125 -10.6640625 2.8515625 C-11.82035156 2.92503906 -11.82035156 2.92503906 -13 3 C-7.80895424 -0.46069717 -6.22150009 -1.17386794 0 0 Z " fill="#78DE55" transform="translate(127,268)"/>
<path d="M0 0 C3.77727089 1.81309003 7.37269822 3.9073259 11 6 C9.02 6.99 9.02 6.99 7 8 C6.67 7.34 6.34 6.68 6 6 C5.01 5.67 4.02 5.34 3 5 C1.3125 2.4375 1.3125 2.4375 0 0 Z " fill="#7FD865" transform="translate(245,181)"/>
<path d="M0 0 C3.94139078 1.66751148 6.7892812 4.22710649 10 7 C9.01 7.495 9.01 7.495 8 8 C6.66102417 7.04956626 5.32894573 6.08940853 4 5.125 C3.2575 4.59132812 2.515 4.05765625 1.75 3.5078125 C1.1725 3.01023438 0.595 2.51265625 0 2 C0 1.34 0 0.68 0 0 Z " fill="#86E46C" transform="translate(256,162)"/>
<path d="M0 0 C0.99 1.485 0.99 1.485 2 3 C2.556875 3.804375 3.11375 4.60875 3.6875 5.4375 C5 8 5 8 4.6875 10.3125 C4.460625 10.869375 4.23375 11.42625 4 12 C0.46209597 8.30827405 0.40884117 4.90609405 0 0 Z " fill="#061E03" transform="translate(215,113)"/>
<path d="M0 0 C1.58294782 -0.05437607 3.16644256 -0.09296271 4.75 -0.125 C5.63171875 -0.14820313 6.5134375 -0.17140625 7.421875 -0.1953125 C10.1135858 0.00860498 11.69904974 0.63448279 14 2 C9.04653013 3.59789351 4.86717585 2.28306814 0 1 C0 0.67 0 0.34 0 0 Z " fill="#70CB55" transform="translate(271,64)"/>
<path d="M0 0 C0.33 0 0.66 0 1 0 C1.36923077 4.55384615 1.36923077 4.55384615 -0.5 6.8125 C-0.995 7.204375 -1.49 7.59625 -2 8 C-2.99 7.67 -3.98 7.34 -5 7 C-4.19152271 5.83054208 -3.37810888 4.66449539 -2.5625 3.5 C-2.11003906 2.8503125 -1.65757812 2.200625 -1.19140625 1.53125 C-0.79824219 1.0259375 -0.40507812 0.520625 0 0 Z " fill="#0D2B08" transform="translate(189,312)"/>
<path d="M0 0 C1.65 0 3.3 0 5 0 C2.16569547 3.2542015 0.31392226 4.5206753 -4 5 C-3.67 4.01 -3.34 3.02 -3 2 C-2.01 2 -1.02 2 0 2 C0 1.34 0 0.68 0 0 Z " fill="#76D05E" transform="translate(112,294)"/>
<path d="M0 0 C0.66 0.66 1.32 1.32 2 2 C1.7578125 4.1640625 1.7578125 4.1640625 1.125 6.625 C0.92132813 7.44226563 0.71765625 8.25953125 0.5078125 9.1015625 C0.34023437 9.72804688 0.17265625 10.35453125 0 11 C-0.99 11 -1.98 11 -3 11 C-2.11223998 7.30099992 -1.05418136 3.65449539 0 0 Z " fill="#7FF25A" transform="translate(187,259)"/>
<path d="M0 0 C0.33 0 0.66 0 1 0 C1.33 3.63 1.66 7.26 2 11 C1.01 11 0.02 11 -1 11 C-1.66 10.34 -2.32 9.68 -3 9 C-2.01 9 -1.02 9 0 9 C0 6.03 0 3.06 0 0 Z " fill="#73D054" transform="translate(290,107)"/>
<path d="M0 0 C0 0.99 0 1.98 0 3 C-0.556875 2.773125 -1.11375 2.54625 -1.6875 2.3125 C-4.92123084 1.87550935 -6.39073978 3.18801373 -9 5 C-8.625 3.0625 -8.625 3.0625 -8 1 C-5.29120665 -0.35439668 -2.99066732 -0.06501451 0 0 Z " fill="#0D2B08" transform="translate(206,15)"/>
<path d="M0 0 C0.33 0.99 0.66 1.98 1 3 C-0.32 4.32 -1.64 5.64 -3 7 C-3.99 6.67 -4.98 6.34 -6 6 C-4.02 4.02 -2.04 2.04 0 0 Z " fill="#11310A" transform="translate(172,334)"/>
<path d="M0 0 C0.99 0.66 1.98 1.32 3 2 C1.8125 3.5 1.8125 3.5 0 5 C-2.6875 5.1875 -2.6875 5.1875 -5 5 C-4.360625 4.731875 -3.72125 4.46375 -3.0625 4.1875 C-0.66868314 3.11332248 -0.66868314 3.11332248 0 0 Z " fill="#7EEE5D" transform="translate(132,336)"/>
<path d="M0 0 C0.66 0.33 1.32 0.66 2 1 C-1.32307692 4.93846154 -1.32307692 4.93846154 -4.75 5.25 C-5.4925 5.1675 -6.235 5.085 -7 5 C-5.47058649 1.94117299 -3.05780454 1.31048766 0 0 Z " fill="#0C2A08" transform="translate(127,289)"/>
<path d="M0 0 C1.32 0.33 2.64 0.66 4 1 C4.33 2.65 4.66 4.3 5 6 C2.525 5.01 2.525 5.01 0 4 C0 2.68 0 1.36 0 0 Z " fill="#7CE45D" transform="translate(235,171)"/>
<path d="M0 0 C2.31 1.65 4.62 3.3 7 5 C4 6 4 6 1.8125 5.0625 C1.214375 4.711875 0.61625 4.36125 0 4 C0 2.68 0 1.36 0 0 Z " fill="#0F2F09" transform="translate(245,130)"/>
</svg>
